Coordinates
version=1
nRows=27
nColumns=26
inDegrees=yes

Units are S.I. units (second, meters, Newtons, ...)
Angles are in degrees.

endheader
time	pelvis_tilt	pelvis_list	pelvis_rotation	pelvis_tx	pelvis_ty	pelvis_tz	hip_flexion_r	hip_adduction_r	hip_rotation_r	knee_angle_r	knee_angle_r_beta	ankle_angle_r	subtalar_angle_r	mtp_angle_r	hip_flexion_l	hip_adduction_l	hip_rotation_l	knee_angle_l	knee_angle_l_beta	ankle_angle_l	subtalar_angle_l	mtp_angle_l	lumbar_extension	lumbar_bending	lumbar_rotation
    219.75202360	     -8.30805492	     -1.47053746	      2.27431916	      0.07117010	      1.08939389	      0.23889176	     38.14049047	      2.31306055	      0.58854125	     47.23329668	     47.23329668	     -5.66886528	    -18.39766009	      0.00000000	    -11.90255324	      0.33249853	     -2.16747905	     18.36614291	     18.36614291	    -21.59710406	     -7.94362840	      0.00000000	     -8.74758122	      2.73784882	     -5.47826507
    219.76202360	     -8.57060766	     -0.76873090	      1.63349320	      0.07313808	      1.09201818	      0.23899663	     37.14315541	      2.17407846	      1.80478345	     40.76492064	     40.76492064	     -5.72237776	    -17.50255868	      0.00000000	    -12.75851482	      1.17089048	     -1.95698987	     18.29655571	     18.29655571	    -25.50584780	     -9.38433313	      0.00000000	     -8.30228463	      2.06740216	     -5.39658649
    219.77202360	     -8.80184317	      0.07823510	      1.20080100	      0.07472245	      1.09339841	      0.23882300	     36.07087225	      1.70098883	      2.83963153	     34.52226662	     34.52226662	     -5.48105086	    -16.39143063	      0.00000000	    -13.29950908	      2.18158133	     -1.14549465	     19.17911282	     19.17911282	    -27.05425428	    -10.71690727	      0.00000000	     -7.90526306	      1.23549325	     -5.51228816
    219.78202360	     -9.00615858	      1.02251291	      0.76435188	      0.07594534	      1.09352104	      0.23865866	     35.08746910	      1.07696801	      3.80381633	     28.85919420	     28.85919420	     -4.94456110	    -14.90023615	      0.00000000	    -13.53444385	      3.35525705	     -0.02903851	     20.94416003	     20.94416003	    -26.04974439	    -11.66046075	      0.00000000	     -7.55971658	      0.28243613	     -5.41873112
    219.79202360	     -8.79896201	      1.76429346	      0.41273300	      0.07729343	      1.09314223	      0.23824339	     33.73149925	      0.53676334	      4.36632111	     23.81560329	     23.81560329	     -4.05640606	    -13.29889957	      0.00000000	    -13.92017257	      4.38954642	      1.28441792	     23.33721030	     23.33721030	    -24.01985575	    -12.85980499	      0.00000000	     -7.66518846	     -0.36901080	     -5.41652237
    219.80202360	     -8.57140602	      2.55400529	     -0.21631436	      0.07833489	      1.09186707	      0.23809467	     32.59704387	      0.08283640	      5.12820634	     19.77864891	     19.77864891	     -2.95197924	    -11.62652685	      0.00000000	    -13.95268466	      5.56124028	      2.05218258	     26.33523082	     26.33523082	    -22.12734455	    -14.09217862	      0.00000000	     -7.82953488	     -1.08561609	     -5.06748060
    219.81202360	     -8.02549241	      2.95041717	     -0.88683315	      0.07925781	      1.09014508	      0.23817153	     31.36746264	     -0.06583810	      5.17266620	     16.86937316	     16.86937316	     -1.66207848	     -9.50910636	      0.00000000	    -13.89925842	      6.19614577	      1.94486061	     29.99375944	     29.99375944	    -20.55966845	    -14.64513630	      0.00000000	     -8.38071809	     -1.34216453	     -4.64739219
    219.82202360	     -7.57207940	      3.31255840	     -1.68563641	      0.07959976	      1.08747189	      0.23861524	     30.46114988	     -0.07109744	      5.35517305	     14.97199776	     14.97199776	     -0.98944988	     -7.98536885	      0.00000000	    -13.41589648	      6.81311239	      1.50498596	     34.02268915	     34.02268915	    -20.18869341	    -15.67240781	      0.00000000	     -8.87192089	     -1.61584483	     -4.12113848
    219.83202360	     -6.97999486	      3.34875484	     -2.49127968	      0.07961206	      1.08409902	      0.23913591	     29.58835486	      0.23939584	      5.12780013	     14.10336101	     14.10336101	     -0.65952389	     -6.67938557	      0.00000000	    -12.78627677	      7.01292472	      0.72407466	     38.40450651	     38.40450651	    -20.45476117	    -16.53053556	      0.00000000	     -9.57320922	     -1.51043114	     -3.53388236
    219.84202360	     -6.35858555	      3.23167912	     -3.20821319	      0.07932130	      1.07986625	      0.23943660	     28.83223831	      0.68600135	      4.85177138	     14.23519627	     14.23519627	     -0.42084189	     -5.92941090	      0.00000000	    -11.95548588	      7.03062178	      0.02615171	     43.07708603	     43.07708603	    -20.79325358	    -17.20788574	      0.00000000	    -10.35023678	     -1.21943862	     -2.94921421
    219.85202360	     -5.70749748	      3.11294906	     -3.83017178	      0.07887111	      1.07474462	      0.23928566	     28.07465730	      1.12514607	      4.94304792	     15.10352072	     15.10352072	      0.05838458	     -5.79426621	      0.00000000	    -10.98318833	      7.06774254	     -0.49681539	     47.91669022	     47.91669022	    -20.74298974	    -17.63457837	      0.00000000	    -11.18002394	     -0.87275128	     -2.44001938
    219.86202360	     -5.28919694	      2.96290387	     -4.38141347	      0.07806858	      1.06843278	      0.23882495	     27.55074634	      1.59349192	      5.15307292	     16.50233566	     16.50233566	      0.37893487	     -6.02449476	      0.00000000	     -9.55064688	      7.00877080	     -1.01182703	     52.98973195	     52.98973195	    -19.90487376	    -17.55347377	      0.00000000	    -11.80073185	     -0.45144632	     -1.87204558
    219.87202360	     -4.84506810	      2.69481089	     -4.99439283	      0.07708066	      1.06132203	      0.23840447	     27.07196982	      2.23791269	      5.39512370	     18.56881279	     18.56881279	     -0.20021373	     -6.60730584	      0.00000000	     -8.03089599	      6.75230036	     -1.73612118	     58.08909228	     58.08909228	    -18.55123259	    -17.57479734	      0.00000000	    -12.48069720	      0.06602009	     -1.18219926
    219.88202360	     -4.92781873	      2.15964678	     -5.67495102	      0.07517656	      1.05271501	      0.23876627	     27.10586711	      3.48059247	      6.26380980	     21.22990047	     21.22990047	     -0.17700040	     -8.80092413	      0.00000000	     -5.67436405	      5.89542184	     -2.74923609	     63.58564158	     63.58564158	    -15.95880841	    -16.63194012	      0.00000000	    -12.65354975	      0.78337102	     -0.39337520
    219.89202360	     -5.07998942	      1.42772623	     -6.54896219	      0.07253196	      1.04329903	      0.23976301	     27.55039170	      5.07995446	      6.65139830	     25.47128282	     25.47128282	      3.89527745	    -11.00009528	      0.00000000	     -3.13633574	      4.58574614	     -4.08893485	     69.05948579	     69.05948579	    -13.56785835	    -16.07023048	      0.00000000	    -12.82153196	      1.61101142	      0.80994138
    219.90202360	     -5.43030162	      0.94907320	     -7.43953606	      0.06887229	      1.03314448	      0.24039899	     28.99041019	      6.41096321	      6.75937000	     31.23005299	     31.23005299	      8.37130645	    -11.79732315	      0.00000000	     -0.15456710	      3.46219613	     -5.24473341	     74.50336049	     74.50336049	    -11.35924534	    -15.73139114	      0.00000000	    -12.78551335	      2.18371772	      1.87906943
    219.91202360	     -5.73550704	      0.31989282	     -8.35246843	      0.06450016	      1.02396146	      0.24072347	     30.55927850	      7.79088951	      7.08584500	     36.83159614	     36.83159614	     10.51252677	    -13.29970940	      0.00000000	      2.92311936	      2.16583754	     -6.19878988	     79.64608849	     79.64608849	     -9.85694152	    -16.01421214	      0.00000000	    -12.95286426	      2.98134686	      3.02296290
    219.92202360	     -6.11757525	     -0.52982790	     -9.08452831	      0.05994055	      1.01642199	      0.24099603	     31.18322508	      9.00213929	      7.19564887	     40.80378439	     40.80378439	     13.13503014	    -13.54086334	      0.00000000	      6.21402164	      0.58825923	     -6.61836470	     84.36141778	     84.36141778	     -8.73380662	    -16.09508206	      0.00000000	    -13.17892244	      4.04259606	      4.10654428
    219.93202360	     -6.66949429	     -1.12861614	     -9.51435826	      0.05551775	      1.01041085	      0.24058296	     31.16640803	      9.46605108	      6.98937326	     43.51887604	     43.51887604	     16.67395607	    -11.93695453	      0.00000000	      9.88470004	     -0.61818977	     -6.42405459	     88.49784375	     88.49784375	     -7.68015287	    -15.92827099	      0.00000000	    -13.21280500	      4.90791420	      5.14607236
    219.94202360	     -6.92698684	     -1.73270103	     -9.61906853	      0.05203234	      1.00627873	      0.24009583	     30.06905545	      9.79234711	      6.92751787	     44.88896860	     44.88896860	     19.64345092	    -10.98849789	      0.00000000	     13.26238700	     -1.75056623	     -5.84408695	     91.89681429	     91.89681429	     -6.96532636	    -16.07912127	      0.00000000	    -13.45781240	      5.68282287	      6.18460220
    219.95202360	     -7.22371899	     -1.95153908	     -9.08799785	      0.04902281	      1.00320377	      0.23898916	     28.75467731	      9.48529114	      6.53773885	     45.66367269	     45.66367269	     22.29447978	    -10.28414114	      0.00000000	     16.88498594	     -2.23118919	     -4.59405108	     94.69514435	     94.69514435	     -5.90882769	    -15.66434204	      0.00000000	    -13.42172870	      6.06777810	      6.41989834
    219.96202360	     -7.42452759	     -2.15108915	     -8.29020232	      0.04652733	      1.00184223	      0.23786540	     27.06394029	      9.06667414	      6.01409814	     45.96459243	     45.96459243	     24.31371243	     -9.77467322	      0.00000000	     20.39160712	     -2.53146739	     -3.13688566	     96.74240954	     96.74240954	     -4.89768708	    -15.32317212	      0.00000000	    -13.36546366	      6.39698928	      6.47888757
    219.97202360	     -7.61980963	     -2.30446027	     -7.36947373	      0.04449765	      1.00206648	      0.23702664	     25.15259626	      8.53626126	      5.37730027	     45.90440609	     45.90440609	     25.86136723	     -8.96412109	      0.00000000	     23.79049866	     -2.67128843	     -1.64580582	     97.99526567	     97.99526567	     -3.91003101	    -14.96608172	      0.00000000	    -13.19625603	      6.60694090	      6.40598763
    219.98202360	     -7.91174765	     -2.25239925	     -6.51829118	      0.04284702	      1.00353195	      0.23657616	     22.94010855	      7.94802440	      4.96832107	     45.01578232	     45.01578232	     26.90296105	     -8.42521604	      0.00000000	     27.14283386	     -2.56187122	     -0.44706504	     98.45188594	     98.45188594	     -3.22502430	    -14.89538386	      0.00000000	    -12.82674886	      6.49798543	      6.50971553
    219.99202360	     -8.27905552	     -1.78628302	     -6.00276555	      0.04172419	      1.00601402	      0.23685676	     20.55057238	      7.24370945	      5.28700093	     43.56012319	     43.56012319	     27.24776044	     -8.48868081	      0.00000000	     30.28524997	     -2.19192908	      0.04373039	     98.08216007	     98.08216007	     -2.70948340	    -15.06136695	      0.00000000	    -12.24143267	      5.73258983	      7.18774412
    220.00202360	     -8.81707028	     -1.21260234	     -5.43578272	      0.04108693	      1.00923922	      0.23721307	     18.16266866	      6.48779504	      5.71716240	     41.69581297	     41.69581297	     27.12406489	     -8.59779682	      0.00000000	     33.37384141	     -1.68153502	      0.38063254	     97.03965609	     97.03965609	     -2.18438083	    -15.33678899	      0.00000000	    -11.39526379	      4.80365975	      7.83389756
    220.01202360	     -9.11887915	     -0.51708254	     -5.08579687	      0.04111683	      1.01408827	      0.23801918	     15.29117040	      5.76919332	      6.66384090	     39.29060540	     39.29060540	     25.62890198	     -9.76219643	      0.00000000	     35.81688691	     -1.17261473	      0.17539480	     95.10474910	     95.10474910	     -2.36326474	    -16.60752133	      0.00000000	    -10.80381869	      3.60719234	      8.62382794
